<svg id="aa790f95-79fa-4c5a-afc2-c00affb37798" data-name="Layer 1" xmlns="http://www.w3.org/2000/svg" width="803.0524" height="591.37511" viewBox="0 0 803.0524 591.37511"><path d="M357.4206,647.88287H229.695a14.9043,14.9043,0,0,1-14.8872-14.8877V563.42974A14.90346,14.90346,0,0,1,229.695,548.543H357.4206a14.90347,14.90347,0,0,1,14.88721,14.88672v69.56543A14.9043,14.9043,0,0,1,357.4206,647.88287Z" transform="translate(-197.33207 -155.43843)" fill="#f2f2f2" style="isolation:isolate"/><path d="M323.5706,675.40242c2.92224-23.49813,17.4851-46.65062,39.89522-54.29756a109.09889,109.09889,0,0,0,.00541,74.90377c3.44357,9.31474,8.24353,19.31642,5.0044,28.70426-2.01535,5.84138-6.94564,10.31055-12.4567,13.105-5.51141,2.79446-11.62791,4.12634-17.66787,5.43158l-1.1887.98313C327.574,722.58162,320.64836,698.90056,323.5706,675.40242Z" transform="translate(-197.33207 -155.43843)" fill="#f0f0f0"/><path d="M363.6882,621.54918a93.25024,93.25024,0,0,0-23.18185,52.48118,40.15633,40.15633,0,0,0,.45678,12.57358,23.03166,23.03166,0,0,0,5.72826,10.68257c2.58186,2.83669,5.55131,5.43932,7.39865,8.85423a14.10231,14.10231,0,0,1,.689,11.51262c-1.631,4.678-4.84564,8.491-8.11886,12.11054-3.63428,4.0188-7.47284,8.1355-9.01769,13.46337-.18718.64554-1.1779.31736-.991-.32721,2.68777-9.26958,11.68608-14.53488,15.97735-22.88386,2.00239-3.89579,2.84286-8.41863.96566-12.531-1.64154-3.59612-4.70137-6.2826-7.34038-9.13221a24.57655,24.57655,0,0,1-5.99019-10.23656,37.12386,37.12386,0,0,1-.93851-12.50963,90.4696,90.4696,0,0,1,6.60735-27.49288,94.90378,94.90378,0,0,1,17.06492-27.34742c.44622-.49967,1.13386.28631.69055.78272Z" transform="translate(-197.33207 -155.43843)" fill="#fff"/><path d="M340.78726,667.7147a13.99051,13.99051,0,0,1-10.64953-14.65557c.05317-.66937,1.09583-.61819,1.04259.05207a12.9549,12.9549,0,0,0,9.93415,13.61249c.65333.15533.32238,1.14545-.32721.991Z" transform="translate(-197.33207 -155.43843)" fill="#fff"/><path d="M345.19286,696.02061a26.96555,26.96555,0,0,0,12.04174-15.53018c.18946-.64486,1.18023-.31687.991.32721a28.04821,28.04821,0,0,1-12.56337,16.13509c-.5787.34328-1.04493-.5907-.46937-.93212Z" transform="translate(-197.33207 -155.43843)" fill="#fff"/><path d="M350.98819,639.0803a7.91928,7.91928,0,0,0,7.50482-.381c.57407-.35044,1.0397.584.46937.93212a8.87419,8.87419,0,0,1-8.3014.43986.53935.53935,0,0,1-.3319-.65911.52445.52445,0,0,1,.65911-.3319Z" transform="translate(-197.33207 -155.43843)" fill="#fff"/><path d="M431.775,663.07539c-.35223.229-.70447.458-1.05713.69587a104.29335,104.29335,0,0,0-13.335,10.411c-.326.29068-.652.59017-.969.88962a109.94769,109.94769,0,0,0-23.87841,32.68658,106.77161,106.77161,0,0,0-5.84864,15.13216c-2.15814,7.16092-3.92834,15.09689-8.20031,20.95425a18.31767,18.31767,0,0,1-1.427,1.7616H338.45393c-.08774-.044-.1759-.0793-.26407-.12333l-1.5414.07048c.06193-.273.132-.55491.194-.82795.03527-.15854.07914-.31708.1144-.47562.02624-.10569.0529-.21143.07054-.30831.0086-.03521.01763-.07042.02623-.09687.01764-.09688.0443-.185.06193-.27305q.58125-2.36493,1.19777-4.7299c0-.00882,0-.00882.0086-.01763a156.99459,156.99459,0,0,1,13.212-34.686c.17633-.32589.35223-.6606.5462-.98649a101.88561,101.88561,0,0,1,9.15164-13.88144,90.07192,90.07192,0,0,1,5.99831-6.86142,74.90044,74.90044,0,0,1,18.74327-14.04c13.84638-7.31064,29.87671-10.11158,44.67443-5.64591C431.02624,662.83762,431.39654,662.95207,431.775,663.07539Z" transform="translate(-197.33207 -155.43843)" fill="#f0f0f0"/><path d="M431.68822,663.56538a93.25026,93.25026,0,0,0-50.10672,27.94621,40.15691,40.15691,0,0,0-7.20544,10.31431,23.03173,23.03173,0,0,0-1.858,11.97825c.35359,3.81939,1.15757,7.68526.57656,11.5241a14.10241,14.10241,0,0,1-6.38129,9.607c-4.11876,2.75316-8.98115,3.86218-13.77384,4.78148-5.32137,1.02069-10.86478,1.99657-15.306,5.32047-.53812.40273-1.13156-.45579-.59426-.85792,7.727-5.783,18.08168-4.56946,26.53468-8.652,3.94433-1.905,7.33846-5.01021,8.31557-9.42394.85444-3.85962.02878-7.84685-.36266-11.711a24.5767,24.5767,0,0,1,1.38029-11.77984,37.12414,37.12414,0,0,1,6.78231-10.55328,90.46936,90.46936,0,0,1,21.82821-17.97344,94.90382,94.90382,0,0,1,30.09042-11.56113c.65712-.1303.73294.91127.08012,1.04072Z" transform="translate(-197.33207 -155.43843)" fill="#fff"/><path d="M385.60827,686.638a13.99049,13.99049,0,0,1,.32061-18.1134c.44546-.50244,1.24715.16618.8011.66929a12.95489,12.95489,0,0,0-.2638,16.84985c.42813.51738-.43223,1.10868-.85791.59426Z" transform="translate(-197.33207 -155.43843)" fill="#fff"/><path d="M372.08378,711.89118a26.96558,26.96558,0,0,0,18.96489-5.15c.53952-.40081,1.13313.45758.59426.85792a28.04826,28.04826,0,0,1-19.74559,5.31895c-.66874-.07434-.47867-1.10077.18644-1.02684Z" transform="translate(-197.33207 -155.43843)" fill="#fff"/><path d="M410.993,669.91671a7.91929,7.91929,0,0,0,6.22155,4.21424c.66935.06582.47856,1.09223-.18643,1.02684a8.87421,8.87421,0,0,1-6.893-4.64682.53933.53933,0,0,1,.13182-.72608.52446.52446,0,0,1,.72609.13182Z" transform="translate(-197.33207 -155.43843)" fill="#fff"/><circle cx="707.0524" cy="290.16807" r="79" fill="#f2f2f2" style="isolation:isolate"/><path d="M995.93615,190.50126H201.78039a4.45318,4.45318,0,0,1-4.44832-4.44832v-26.1662a4.45318,4.45318,0,0,1,4.44832-4.44831H995.93615a4.45318,4.45318,0,0,1,4.44832,4.44831v26.1662A4.45319,4.45319,0,0,1,995.93615,190.50126Z" transform="translate(-197.33207 -155.43843)" fill="#e4e4e4"/><circle id="a7a88a4d-66b2-4c09-a29b-e65e87e57a01" data-name="Ellipse 90" cx="25.81549" cy="16.25513" r="6.3155" fill="#fff"/><circle id="ecd091ab-fa27-42b2-b94f-bd1073aab054" data-name="Ellipse 91" cx="49.78705" cy="16.25513" r="6.3155" fill="#fff"/><circle id="a332723e-32dc-4e13-8ae5-d2643a7feb7f" data-name="Ellipse 92" cx="73.75972" cy="16.25513" r="6.3155" fill="#fff"/><path d="M972.44912,167.34669H944.845a2.04475,2.04475,0,0,1,0-4.0895h27.60415a2.04475,2.04475,0,1,1,0,4.0895Z" transform="translate(-197.33207 -155.43843)" fill="#fff"/><path d="M972.44912,175.01451H944.845a2.04475,2.04475,0,0,1,0-4.0895h27.60415a2.04475,2.04475,0,1,1,0,4.0895Z" transform="translate(-197.33207 -155.43843)" fill="#fff"/><path d="M972.44912,182.68233H944.845a2.04475,2.04475,0,0,1,0-4.0895h27.60415a2.04475,2.04475,0,1,1,0,4.0895Z" transform="translate(-197.33207 -155.43843)" fill="#fff"/><path d="M357.4206,337.88287H229.695a14.9043,14.9043,0,0,1-14.8872-14.8877V253.42974A14.90346,14.90346,0,0,1,229.695,238.543H357.4206a14.90347,14.90347,0,0,1,14.88721,14.88672v69.56543A14.9043,14.9043,0,0,1,357.4206,337.88287Z" transform="translate(-197.33207 -155.43843)" fill="#e6e6e6" style="isolation:isolate"/><path d="M552.4206,337.88287H424.695a14.9043,14.9043,0,0,1-14.8872-14.8877V253.42974A14.90346,14.90346,0,0,1,424.695,238.543H552.4206a14.90347,14.90347,0,0,1,14.88721,14.88672v69.56543A14.9043,14.9043,0,0,1,552.4206,337.88287Z" transform="translate(-197.33207 -155.43843)" fill="#01bf71"/><path d="M747.4206,337.88287H619.695a14.9043,14.9043,0,0,1-14.8872-14.8877V253.42974A14.90346,14.90346,0,0,1,619.695,238.543H747.4206a14.90347,14.90347,0,0,1,14.88721,14.88672v69.56543A14.9043,14.9043,0,0,1,747.4206,337.88287Z" transform="translate(-197.33207 -155.43843)" fill="#e6e6e6" style="isolation:isolate"/><path d="M357.4206,492.88287H229.695a14.9043,14.9043,0,0,1-14.8872-14.8877V408.42974A14.90346,14.90346,0,0,1,229.695,393.543H357.4206a14.90347,14.90347,0,0,1,14.88721,14.88672v69.56543A14.9043,14.9043,0,0,1,357.4206,492.88287Z" transform="translate(-197.33207 -155.43843)" fill="#f2f2f2" style="isolation:isolate"/><path d="M552.4206,492.88287H424.695a14.9043,14.9043,0,0,1-14.8872-14.8877V408.42974A14.90346,14.90346,0,0,1,424.695,393.543H552.4206a14.90347,14.90347,0,0,1,14.88721,14.88672v69.56543A14.9043,14.9043,0,0,1,552.4206,492.88287Z" transform="translate(-197.33207 -155.43843)" fill="#e6e6e6" style="isolation:isolate"/><path d="M747.4206,492.88287H619.695a14.9043,14.9043,0,0,1-14.8872-14.8877V408.42974A14.90346,14.90346,0,0,1,619.695,393.543H747.4206a14.90347,14.90347,0,0,1,14.88721,14.88672v69.56543A14.9043,14.9043,0,0,1,747.4206,492.88287Z" transform="translate(-197.33207 -155.43843)" fill="#f2f2f2" style="isolation:isolate"/><path d="M552.4206,647.88287H424.695a14.9043,14.9043,0,0,1-14.8872-14.8877V563.42974A14.90346,14.90346,0,0,1,424.695,548.543H552.4206a14.90347,14.90347,0,0,1,14.88721,14.88672v69.56543A14.9043,14.9043,0,0,1,552.4206,647.88287Z" transform="translate(-197.33207 -155.43843)" fill="#f2f2f2" style="isolation:isolate"/><path d="M747.4206,647.88287H619.695a14.9043,14.9043,0,0,1-14.8872-14.8877V563.42974A14.90346,14.90346,0,0,1,619.695,548.543H747.4206a14.90347,14.90347,0,0,1,14.88721,14.88672v69.56543A14.9043,14.9043,0,0,1,747.4206,647.88287Z" transform="translate(-197.33207 -155.43843)" fill="#f2f2f2" style="isolation:isolate"/><g id="aa405d94-515b-444f-88dd-2c52df39214d" data-name="Group 41"><circle id="ede3a9f0-5e02-4455-ac7e-751a5f8c3692" data-name="Ellipse 220" cx="364.107" cy="327.43308" r="22.81223" fill="#01bf71"/><path id="ba039ca8-d148-45ed-9781-bacb7304e881" data-name="Path 1106" d="M570.912,480.95585h-7.75613v-7.75613a1.82509,1.82509,0,0,0-1.82508-1.8251h0a1.8251,1.8251,0,0,0-1.8251,1.82509v7.75614h-7.75612a1.8251,1.8251,0,0,0-1.8251,1.82509v0h0a1.8251,1.8251,0,0,0,1.82508,1.8251h7.75614v7.75613a1.8251,1.8251,0,0,0,1.82509,1.82509h0a1.82509,1.82509,0,0,0,1.8251-1.82508V484.606H570.912a1.8251,1.8251,0,0,0,1.8251-1.82509v0h0a1.8251,1.8251,0,0,0-1.82509-1.8251h0Z" transform="translate(-197.33207 -155.43843)" fill="#fff"/></g><g id="bbf41f8a-587e-4352-8304-6d86282586e3" data-name="Group 41"><circle id="e4c91425-bc08-43ed-9b2d-9a6452dd6ab0" data-name="Ellipse 220" cx="562.107" cy="176.43308" r="22.81223" fill="#01bf71"/><path id="b08e8960-896e-4763-a2dc-6c3da3e5d175" data-name="Path 1106" d="M768.912,329.95585h-7.75613v-7.75613a1.82509,1.82509,0,0,0-1.82508-1.8251h0a1.8251,1.8251,0,0,0-1.8251,1.82509v7.75614h-7.75612a1.8251,1.8251,0,0,0-1.8251,1.82509v0h0a1.8251,1.8251,0,0,0,1.82508,1.8251h7.75614v7.75613a1.8251,1.8251,0,0,0,1.82509,1.82509h0a1.82509,1.82509,0,0,0,1.8251-1.82508V333.606H768.912a1.8251,1.8251,0,0,0,1.8251-1.82509v0h0a1.8251,1.8251,0,0,0-1.82509-1.8251h0Z" transform="translate(-197.33207 -155.43843)" fill="#fff"/></g><g id="b77ad267-181d-433f-b31f-af61e58bf4a6" data-name="Group 41"><circle id="e8aef769-5476-47e9-8295-ae809767f9aa" data-name="Ellipse 220" cx="169.107" cy="174.43308" r="22.81223" fill="#01bf71"/><path id="efbebd4e-dbd2-4103-8d2c-f0ca8346a3bf" data-name="Path 1106" d="M375.912,327.95585h-7.75613v-7.75613a1.82509,1.82509,0,0,0-1.82508-1.8251h0a1.8251,1.8251,0,0,0-1.8251,1.82509v7.75614h-7.75612a1.8251,1.8251,0,0,0-1.8251,1.82509v0h0a1.8251,1.8251,0,0,0,1.82508,1.8251h7.75614v7.75613a1.8251,1.8251,0,0,0,1.82509,1.82509h0a1.82509,1.82509,0,0,0,1.8251-1.82508V331.606H375.912a1.8251,1.8251,0,0,0,1.8251-1.82509v0h0a1.8251,1.8251,0,0,0-1.82509-1.8251h0Z" transform="translate(-197.33207 -155.43843)" fill="#fff"/></g><g id="bc9af32e-f7cd-4c85-a4cc-5543d455b8de" data-name="Group 41"><circle id="b56288f5-6382-4006-aaf1-aded98dde780" data-name="Ellipse 220" cx="736.107" cy="290.43308" r="17.9454" fill="#01bf71"/><path id="b9aaef6b-2cfc-46ac-8dc0-30fdc28925de" data-name="Path 1106" d="M940.891,444.36454h-6.10142v-6.10141a1.43572,1.43572,0,0,0-1.43571-1.43573h0a1.43572,1.43572,0,0,0-1.43573,1.43572v6.10142h-6.10141a1.43572,1.43572,0,0,0-1.43573,1.43572v0h0a1.43572,1.43572,0,0,0,1.43572,1.43573h6.10142v6.10141a1.43572,1.43572,0,0,0,1.43572,1.43573h0a1.43572,1.43572,0,0,0,1.43572-1.43572V447.236H940.891a1.43572,1.43572,0,0,0,1.43572-1.43572v0h0a1.43572,1.43572,0,0,0-1.43571-1.43573h0Z" transform="translate(-197.33207 -155.43843)" fill="#fff"/></g><path d="M979.98049,471.71908h-97.6746a15.65409,15.65409,0,0,1-15.63666-15.63619V397.77868a2.8808,2.8808,0,0,1,5.76159,0V413.3933l113.45474,10.31347a8.65244,8.65244,0,0,1,8.49891,8.64145,2.88158,2.88158,0,0,1-.04924.53077l-5.71751,30.49216A8.652,8.652,0,0,1,979.98049,471.71908ZM872.43082,419.17834v36.90455a9.8862,9.8862,0,0,0,9.87507,9.8746h97.6746a2.88394,2.88394,0,0,0,2.8808-2.88079,2.88149,2.88149,0,0,1,.04923-.53077l5.70392-30.42a2.8846,2.8846,0,0,0-2.87236-2.65854c-.08721,0-.17395-.00376-.2607-.0122Z" transform="translate(-197.33207 -155.43843)" fill="#01bf71"/><circle cx="659.01928" cy="338.36675" r="4.80132" fill="#01bf71"/><circle cx="778.80736" cy="338.36675" r="4.80132" fill="#01bf71"/><path d="M980.94076,489.00385H852.51029a2.8808,2.8808,0,0,1,0-5.76159H980.94076a2.8808,2.8808,0,0,1,0,5.76159Z" transform="translate(-197.33207 -155.43843)" fill="#01bf71"/><path d="M877.23215,399.69921H852.26526a2.88079,2.88079,0,0,1,0-5.76159h24.96689a2.88079,2.88079,0,0,1,0,5.76159Z" transform="translate(-197.33207 -155.43843)" fill="#01bf71"/><path d="M897.26127,487.53719a2.86975,2.86975,0,0,1-1.876-.69581l-18.93522-16.272a2.88075,2.88075,0,0,1,3.75478-4.37l18.93523,16.272a2.88079,2.88079,0,0,1-1.8788,5.06577Z" transform="translate(-197.33207 -155.43843)" fill="#01bf71"/><path d="M901.2511,469.94953a2.88063,2.88063,0,0,1-2.88079-2.88079V420.825a2.88079,2.88079,0,0,1,5.76158,0v46.2437A2.88063,2.88063,0,0,1,901.2511,469.94953Z" transform="translate(-197.33207 -155.43843)" fill="#01bf71"/><path d="M962.1054,469.94953a2.88064,2.88064,0,0,1-2.88079-2.88079V424.6661a2.8808,2.8808,0,0,1,5.76159,0v42.40264A2.88064,2.88064,0,0,1,962.1054,469.94953Z" transform="translate(-197.33207 -155.43843)" fill="#01bf71"/><path d="M537.2294,298.35825a9.06969,9.06969,0,0,1-7.32081,11.82445l-10.5483,72.00079-17.30295-8.451,17.40372-71.8703a9.11882,9.11882,0,0,1,17.76834-3.504Z" transform="translate(-197.33207 -155.43843)" fill="#9e616a"/><path d="M411.243,528.95811a9.06967,9.06967,0,0,0-3.492-13.46173l7.11621-76.58633-14.90473,7.63987-4.654,73.80089a9.11882,9.11882,0,0,0,15.93443,8.6073Z" transform="translate(-197.33207 -155.43843)" fill="#9e616a"/><polygon points="224.093 334.784 288.054 332.324 291.744 265.903 217.943 265.903 224.093 334.784" fill="#9e616a"/><polygon points="212.222 569.355 223.152 569.354 228.351 527.197 212.22 527.197 212.222 569.355" fill="#9e616a"/><path d="M406.84331,719.40159l17.27774-1.03125v7.40253l16.42642,11.34468a4.6239,4.6239,0,0,1-2.62746,8.42894H417.35022l-3.54551-7.32223-1.38435,7.32223h-7.75563Z" transform="translate(-197.33207 -155.43843)" fill="#2f2e41"/><polygon points="260.836 569.355 271.766 569.354 276.965 527.197 260.834 527.197 260.836 569.355" fill="#9e616a"/><path d="M420.53805,474.6301s-19.13755,15.45037-8.76305,70.62846c-1.57981.1883.20907,3.30232.20907,3.30232l1.497,44.95953,1.15683,5.15291-3.84607,8.31463,1.58552,9.034-4.888,81.99169,18.05718,2.33507,17.28018-85.14358,3.29088-9.57259,3.30089-8.39076-1.78056-8.94768,1.46032-13.88789,9.96187-46.829,2.4387,81.21809-3.403,7.75381,1.89377,8.51157-4.219,4.51816-1.66748,75.9899,19.2544.90061,15.93109-76.60317-1.23529-9.77548,2.11951-7.22788V595.97986l3.63024-7.96807,7.914-43.44752s2.38742-33.9583-15.03183-73.91893Z" transform="translate(-197.33207 -155.43843)" fill="#2f2e41"/><path d="M428.33755,366.13926S404.166,370.91972,400.001,391.53394s-6.84455,67.26287-6.84455,67.26287l.91213,6.49623,23.38169,5.42179,14.92358-65.36274Z" transform="translate(-197.33207 -155.43843)" fill="#3f3d56"/><path d="M483.50082,373.09743s2.45012-3.43348,16.1711-3.963c.56492-.0218-.13454-1.14252-.13454-1.14252l6.59879-32.25271,21.99061,12.17525-3.7121,33.813L488.2791,422.82812Z" transform="translate(-197.33207 -155.43843)" fill="#3f3d56"/><path d="M469.79351,469.24833c-10.35261.00078-25.936-1.14173-49.39555-4.62451a7.165,7.165,0,0,1-6.01373-5.99894,5.42421,5.42421,0,0,1-.91136-6.16005l.02179-.0428-.53156-.62651a5.80078,5.80078,0,0,1-.38681-7.01148l-7.26519-51.97476a21.89572,21.89572,0,0,1,15.22772-24.02146l2.68194-.83509,10.14248-13.26647.2.00233,32.56069.4335,10.56663,13.41824,17.0808,4.02757.04437.26,3.96609,22.914c2.06242,11.91772-2.66793,16.606-8.70579,27.0863l1.77213,29.43436.804,1.46082a3.95917,3.95917,0,0,1-.94794,4.96773,7.71169,7.71169,0,0,1,.10507,4.77239l-.41793,1.38066c.00078.03969-.11052.60082-1.01254,1.28571C487.753,467.36491,483.08411,469.24833,469.79351,469.24833Z" transform="translate(-197.33207 -155.43843)" fill="#3f3d56"/><path d="M455.45748,719.40159l17.27773-1.03125v7.40253l16.42643,11.34468a4.6239,4.6239,0,0,1-2.62746,8.42894H465.96439l-3.54551-7.32223-1.38435,7.32223H453.2789Z" transform="translate(-197.33207 -155.43843)" fill="#2f2e41"/><circle cx="251.07535" cy="166.25079" r="25.52653" fill="#9e616a"/><path d="M463.33358,296.74435c-9.35592-6.4345-17.59489-7.41464-24.36268-5.58967a8.8968,8.8968,0,0,0-3.55886-3.16014c-5.27837-13.30008-21.34167-21.28745-35.127-17.40465-13.87449,3.90791-23.44756,19.27672-20.8369,33.45273,1.61789,8.787,7.14793,16.39592,9.37222,25.04932,4.30572,16.75143-6.19781,35.94018-22.62927,41.34,15.55756,3.12383,32.68267-6.37913,38.264-21.23346,2.71085-7.215,2.87432-15.09239,3.219-22.79213a75.56373,75.56373,0,0,1,1.9426-15.783,33.722,33.722,0,0,1,2.51173-6.72035,22.9969,22.9969,0,0,1,11.00592-10.67785,8.778,8.778,0,0,0,1.28184,7.90252c-3.64851,4.57052-5.63455,9.51327-5.63455,12.47334-7.57936,13.85261,3.25926,25.75142,17.11217,33.3306a28.38079,28.38079,0,0,0,18.13275,3.16122l.57956-2.474.78521,2.22854,2.62121,7.47121q4.53583,2.1942,8.993,4.81056c-1.12893-5.30144-2.04213-10.59312-2.67059-15.767-.87006-7.04193,2.16293-17.52557,4.35079-23.90093a37.63193,37.63193,0,0,0,2.06034-12.2128v-.18174l2.13033,6.84281,7.75577-3.30851C479.18931,305.32488,480.63222,295.92947,463.33358,296.74435Z" transform="translate(-197.33207 -155.43843)" fill="#2f2e41"/><path d="M782.30074,746.81354h-567.294a1.19069,1.19069,0,0,1,0-2.38137h567.294a1.19069,1.19069,0,0,1,0,2.38137Z" transform="translate(-197.33207 -155.43843)" fill="#ccc"/></svg>